TITLE ""
FILE "1Q_t_0839-0848.mp3" MP3
  TRACK 01 AUDIO
    TITLE "1Q_t_0839-0848_01"
    INDEX 01 00:00:00
  TRACK 02 AUDIO
    TITLE "1Q_t_0839-0848_02"
    INDEX 01 00:01:08
  TRACK 03 AUDIO
    TITLE "1Q_t_0839-0848_03"
    INDEX 01 00:01:18
  TRACK 04 AUDIO
    TITLE "1Q_t_0839-0848_04"
    INDEX 01 00:04:24
  TRACK 05 AUDIO
    TITLE "1Q_t_0839-0848_05"
    INDEX 01 00:04:32
  TRACK 06 AUDIO
    TITLE "1Q_t_0839-0848_06"
    INDEX 01 00:10:40
  TRACK 07 AUDIO
    TITLE "1Q_t_0839-0848_07"
    INDEX 01 00:11:12
  TRACK 08 AUDIO
    TITLE "1Q_t_0839-0848_08"
    INDEX 01 00:12:21
  TRACK 09 AUDIO
    TITLE "1Q_t_0839-0848_09"
    INDEX 01 00:12:35
  TRACK 10 AUDIO
    TITLE "1Q_t_0839-0848_10"
    INDEX 01 00:13:38
  TRACK 11 AUDIO
    TITLE "1Q_t_0839-0848_11"
    INDEX 01 00:13:46
  TRACK 12 AUDIO
    TITLE "1Q_t_0839-0848_12"
    INDEX 01 00:20:68
  TRACK 13 AUDIO
    TITLE "1Q_t_0839-0848_13"
    INDEX 01 00:21:36
  TRACK 14 AUDIO
    TITLE "1Q_t_0839-0848_14"
    INDEX 01 00:22:45
  TRACK 15 AUDIO
    TITLE "1Q_t_0839-0848_15"
    INDEX 01 00:22:53
  TRACK 16 AUDIO
    TITLE "1Q_t_0839-0848_16"
    INDEX 01 00:25:46
  TRACK 17 AUDIO
    TITLE "1Q_t_0839-0848_17"
    INDEX 01 00:25:51
  TRACK 18 AUDIO
    TITLE "1Q_t_0839-0848_18"
    INDEX 01 00:32:32
  TRACK 19 AUDIO
    TITLE "1Q_t_0839-0848_19"
    INDEX 01 00:32:75
  TRACK 20 AUDIO
    TITLE "1Q_t_0839-0848_20"
    INDEX 01 00:34:07
  TRACK 21 AUDIO
    TITLE "1Q_t_0839-0848_21"
    INDEX 01 00:34:17
  TRACK 22 AUDIO
    TITLE "1Q_t_0839-0848_22"
    INDEX 01 00:36:10
  TRACK 23 AUDIO
    TITLE "1Q_t_0839-0848_23"
    INDEX 01 00:36:18
  TRACK 24 AUDIO
    TITLE "1Q_t_0839-0848_24"
    INDEX 01 00:42:36
  TRACK 25 AUDIO
    TITLE "1Q_t_0839-0848_25"
    INDEX 01 00:43:08
  TRACK 26 AUDIO
    TITLE "1Q_t_0839-0848_26"
    INDEX 01 00:44:35
  TRACK 27 AUDIO
    TITLE "1Q_t_0839-0848_27"
    INDEX 01 00:44:43
  TRACK 28 AUDIO
    TITLE "1Q_t_0839-0848_28"
    INDEX 01 00:46:38
  TRACK 29 AUDIO
    TITLE "1Q_t_0839-0848_29"
    INDEX 01 00:46:46
  TRACK 30 AUDIO
    TITLE "1Q_t_0839-0848_30"
    INDEX 01 00:51:19
  TRACK 31 AUDIO
    TITLE "1Q_t_0839-0848_31"
    INDEX 01 00:51:64
  TRACK 32 AUDIO
    TITLE "1Q_t_0839-0848_32"
    INDEX 01 00:53:07
  TRACK 33 AUDIO
    TITLE "1Q_t_0839-0848_33"
    INDEX 01 00:53:16
  TRACK 34 AUDIO
    TITLE "1Q_t_0839-0848_34"
    INDEX 01 00:56:19
  TRACK 35 AUDIO
    TITLE "1Q_t_0839-0848_35"
    INDEX 01 00:56:26
  TRACK 36 AUDIO
    TITLE "1Q_t_0839-0848_36"
    INDEX 01 01:02:70
  TRACK 37 AUDIO
    TITLE "1Q_t_0839-0848_37"
    INDEX 01 01:03:40
  TRACK 38 AUDIO
    TITLE "1Q_t_0839-0848_38"
    INDEX 01 01:04:49
  TRACK 39 AUDIO
    TITLE "1Q_t_0839-0848_39"
    INDEX 01 01:04:59
  TRACK 40 AUDIO
    TITLE "1Q_t_0839-0848_40"
    INDEX 01 01:07:13
  TRACK 41 AUDIO
    TITLE "1Q_t_0839-0848_41"
    INDEX 01 01:07:20
  TRACK 42 AUDIO
    TITLE "1Q_t_0839-0848_42"
    INDEX 01 01:12:04
  TRACK 43 AUDIO
    TITLE "1Q_t_0839-0848_43"
    INDEX 01 01:12:49
  TRACK 44 AUDIO
    TITLE "1Q_t_0839-0848_44"
    INDEX 01 01:13:60
  TRACK 45 AUDIO
    TITLE "1Q_t_0839-0848_45"
    INDEX 01 01:13:68
  TRACK 46 AUDIO
    TITLE "1Q_t_0839-0848_46"
    INDEX 01 01:15:59
  TRACK 47 AUDIO
    TITLE "1Q_t_0839-0848_47"
    INDEX 01 01:15:65
  TRACK 48 AUDIO
    TITLE "1Q_t_0839-0848_48"
    INDEX 01 01:21:70
  TRACK 49 AUDIO
    TITLE "1Q_t_0839-0848_49"
    INDEX 01 01:22:40
  TRACK 50 AUDIO
    TITLE "1Q_t_0839-0848_50"
    INDEX 01 01:23:72
  TRACK 51 AUDIO
    TITLE "1Q_t_0839-0848_51"
    INDEX 01 01:24:05
  TRACK 52 AUDIO
    TITLE "1Q_t_0839-0848_52"
    INDEX 01 01:27:04
  TRACK 53 AUDIO
    TITLE "1Q_t_0839-0848_53"
    INDEX 01 01:27:11
  TRACK 54 AUDIO
    TITLE "1Q_t_0839-0848_54"
    INDEX 01 01:32:48
  TRACK 55 AUDIO
    TITLE "1Q_t_0839-0848_55"
    INDEX 01 01:33:18
  TRACK 56 AUDIO
    TITLE "1Q_t_0839-0848_56"
    INDEX 01 01:34:45
  TRACK 57 AUDIO
    TITLE "1Q_t_0839-0848_57"
    INDEX 01 01:34:54
  TRACK 58 AUDIO
    TITLE "1Q_t_0839-0848_58"
    INDEX 01 01:36:44
  TRACK 59 AUDIO
    TITLE "1Q_t_0839-0848_59"
    INDEX 01 01:36:53
  TRACK 60 AUDIO
    TITLE "1Q_t_0839-0848_60"
    INDEX 01 01:42:36
